<svg xmlns="http://www.w3.org/2000/svg" version="1.1" xmlns:xlink="http://www.w3.org/1999/xlink" xmlns:svgjs="http://svgjs.dev/svgjs" width="1000" height="1000" viewBox="0 0 1000 1000"><rect width="1000" height="1000" fill="#ffffff"></rect><g transform="matrix(0.7,0,0,0.7,150.0000000000001,106.25)"><svg viewBox="0 0 320 360" data-background-color="#ffffff" preserveAspectRatio="xMidYMid meet" height="1125" width="1000" xmlns="http://www.w3.org/2000/svg" xmlns:xlink="http://www.w3.org/1999/xlink"><g id="tight-bounds" transform="matrix(1,0,0,1,0,0)"><svg viewBox="0 0 320 360" height="360" width="320"><g><svg></svg></g><g><svg viewBox="0 0 320 360" height="360" width="320"><g><path d="M20.961 227.22l3.726 4.658-1.863-6.056c-0.466-2.795-3.726 0.466-1.863 1.398M25.153 224.425c1.397 2.329 2.795 4.658 2.795 6.987 0 3.261 2.795 4.658 5.123 5.589-3.261-3.726-5.124-13.974-7.918-12.576M204.017 26.929c7.918 0 15.371-0.932 23.756 0.931 20.495 5.124 37.729 15.371 49.374 29.811l32.606 52.169c1.397 13.042 4.192 27.482 3.726 43.319 3.261 0 2.795-4.658 6.521-5.59-3.726 9.316-5.59 20.961-6.521 34.469-2.329-7.453 0-18.632 0.466-24.687-3.261 5.124-5.124 1.397-5.124-0.932 0.466-3.726-1.397-3.261-2.795-4.658-5.124-4.658-8.384-9.782-12.11-17.7 2.329-6.055 2.795-14.905-4.658-19.563-2.329-1.397-5.124-3.726-6.521-7.453-1.863-5.124-5.124-11.179-4.193-19.097 0.466-2.329-6.987 5.124-11.179 1.863-18.166-12.576-36.332-27.016-58.224-39.127-11.645 0-20.029-4.192-24.221-9.316-3.726-4.658-0.932-10.713 4.658-11.179 3.261 0 6.987-0.932 9.782 0.932 0.466-1.863 2.329-4.192 4.657-4.192M157.904 16.215l0.932 0.466c4.658 0.932 6.987 7.453 12.11 5.124 0 3.261 0.466 6.521-0.466 8.85-1.397 3.726-5.59 3.726-8.85 3.726-31.208-1.863-49.374 11.179-68.471 22.358-5.124 3.261-10.713 5.59-14.906 9.782-20.029 18.632-41.921 35.866-47.045 70.335l-4.192 38.195c-0.466 4.192-5.124 8.384-4.192 13.508l3.26 22.824c-3.261-3.261-5.124 0.932-4.192 2.795 0.466 1.397 2.329 6.055 5.124 1.863 3.726 6.987 7.453 20.495 12.576 26.55 15.837 18.632 36.332 35.4 53.101 52.169 4.192-0.932 7.453-0.932 8.384-3.727 1.397 2.795-1.397 5.59-3.726 6.056 7.453 4.658 15.837 8.85 27.016 9.781 14.44 0.932 27.948 3.261 40.524 6.522 6.521-1.863 13.042-2.795 20.029-3.261 2.329 0 3.726-3.726 6.521-4.658l0.466-4.658c2.795 4.192 2.329-1.397 0.466-4.192 3.261 2.795 4.192 5.124 5.589 6.987 0-1.397 3.726-6.521 3.727-0.466l0.931-6.055c1.397-0.932 1.863 5.124 3.261 0.931 1.397-4.192 4.192-0.932 6.987-2.329-0.932 1.863-0.466 5.59 2.794 3.261l3.727-3.261c2.329 5.59 6.055 3.261 7.918 2.329 20.495-13.042 40.99-28.413 60.553-43.784l-0.466 6.055 2.329-7.453c2.329 2.329 4.192 0.466 5.124-0.931 2.795-4.658 6.521-9.316 12.577-13.508-7.453 20.029-16.303 35.866-27.482 48.908l-4.658 5.59c0 3.261-0.932 7.453-4.658 7.918-1.863 0.466-5.59-0.932-8.384 1.863-1.397 1.863 3.261 5.59-0.466 2.795-3.261-2.329-6.521 0-10.248 0.932-2.795 0.932 1.863 3.726 2.795 5.589 0.932 1.863 1.863 3.726 1.398 6.056l-5.124-5.59c-6.055 3.261-9.782 9.316-14.906 13.974-2.329 1.863-1.397 5.124-1.397 7.918-3.261 0-6.987-0.932-8.85 0.932-1.397 1.863-0.932 4.658-0.932 7.453-4.658-0.466-5.124-7.453-9.315-6.056-4.192 0.932-8.85 1.397-12.577 3.727 2.795 5.59-4.658 2.329-3.726 3.26-6.987-4.192-13.042-7.453-20.495-4.658-15.837-5.124-35.4-2.795-49.84-0.931 0-2.329 0.466-4.658-0.466-5.124-0.932 2.329-3.726 1.397-3.26 1.397-8.85-6.055-17.7-9.782-27.016-14.905-8.384 0.932-16.303-3.261-18.632-5.59-6.521-6.055-13.974-2.795-20.029-4.192-13.042-3.261-17.7-16.769-19.098-26.084-0.932-4.658-4.658-6.521-6.055-6.056-6.055-19.563-15.371-37.263-22.824-55.429-1.863-4.658-1.397-9.316-1.397-14.44 2.329 0.932 4.658 0.466 4.192-2.794-2.329-15.371-7.918-27.016-13.974-38.195 3.261-15.837 3.726-34.469 11.179-48.443 6.521-12.576 18.632-19.098 27.016-29.811 2.795-3.726 2.795-8.85 5.59-12.11 9.316-9.316 18.632-19.098 28.879-27.482 4.658-3.726 10.247 0 17.234-1.397 2.329-8.384 11.645-15.837 20.495-13.508 3.726 0.932 11.179-8.85 13.508-9.782 3.726-1.397 1.863 3.726 1.863 6.987 8.85-6.987 20.961-10.713 32.14-14.906" fill="#085f63" fill-rule="nonzero" stroke="none" stroke-width="1" stroke-linecap="butt" stroke-linejoin="miter" stroke-miterlimit="10" stroke-dasharray="" stroke-dashoffset="0" font-family="none" font-weight="none" font-size="none" text-anchor="none" style="mix-blend-mode: normal" data-fill-palette-color="tertiary"></path></g><g transform="matrix(1,0,0,1,64,156.18211811283405)"><svg viewBox="0 0 192 47.6357637743319" height="47.6357637743319" width="192"><g><svg viewBox="0 0 192 47.6357637743319" height="47.6357637743319" width="192"><g><svg viewBox="0 0 192 47.6357637743319" height="47.6357637743319" width="192"><g><svg viewBox="0 0 192 47.6357637743319" height="47.6357637743319" width="192"><g id="textblocktransform"><svg viewBox="0 0 192 47.6357637743319" height="47.6357637743319" width="192" id="textblock"><g><svg viewBox="0 0 192 47.6357637743319" height="47.6357637743319" width="192"><g transform="matrix(1,0,0,1,0,0)"><svg width="192" viewBox="1.15 -37 151.54 37.6" height="47.6357637743319" data-palette-color="#085f63"><path d="M30.9 0L26.5 0 23-10.3 8.9-10.3 5.4 0 1.15 0 13.35-34.9 18.7-34.9 30.9 0ZM21.95-14L16.05-31 15.8-31 9.9-14 21.95-14ZM36.3 0L36.3-37 40.3-37 40.3-13.55 40.5-13.55 44.45-17.95 51.75-25.8 56.6-25.8 47.05-15.6 57.55 0 52.7 0 44.15-13.15 40.3-9.2 40.3 0 36.3 0ZM69.9 0.6L69.9 0.6Q66.3 0.6 63.87-0.78 61.45-2.15 59.7-4.45L59.7-4.45 62.55-6.75Q64.05-4.85 65.9-3.83 67.75-2.8 70.2-2.8L70.2-2.8Q72.75-2.8 74.17-3.9 75.6-5 75.6-7L75.6-7Q75.6-8.5 74.62-9.58 73.65-10.65 71.1-11.05L71.1-11.05 69.05-11.35Q67.25-11.6 65.75-12.13 64.25-12.65 63.12-13.53 62-14.4 61.37-15.7 60.75-17 60.75-18.8L60.75-18.8Q60.75-20.7 61.45-22.13 62.15-23.55 63.37-24.5 64.6-25.45 66.3-25.93 68-26.4 69.95-26.4L69.95-26.4Q73.1-26.4 75.22-25.3 77.35-24.2 78.95-22.25L78.95-22.25 76.3-19.85Q75.45-21.05 73.8-22.03 72.15-23 69.65-23L69.65-23Q67.15-23 65.87-21.93 64.6-20.85 64.6-19L64.6-19Q64.6-17.1 65.87-16.25 67.15-15.4 69.55-15L69.55-15 71.55-14.7Q75.85-14.05 77.65-12.23 79.45-10.4 79.45-7.45L79.45-7.45Q79.45-3.7 76.9-1.55 74.35 0.6 69.9 0.6ZM86.49 0L86.49-37 90.49-37 90.49-21.6 90.69-21.6Q91.64-23.8 93.37-25.1 95.09-26.4 97.99-26.4L97.99-26.4Q101.99-26.4 104.32-23.83 106.64-21.25 106.64-16.55L106.64-16.55 106.64 0 102.64 0 102.64-15.85Q102.64-22.8 96.79-22.8L96.79-22.8Q95.59-22.8 94.47-22.5 93.34-22.2 92.44-21.6 91.54-21 91.02-20.08 90.49-19.15 90.49-17.9L90.49-17.9 90.49 0 86.49 0ZM135.89 0L133.64 0Q131.39 0 130.42-1.2 129.44-2.4 129.19-4.2L129.19-4.2 128.94-4.2Q128.09-1.8 126.14-0.6 124.19 0.6 121.49 0.6L121.49 0.6Q117.39 0.6 115.12-1.5 112.84-3.6 112.84-7.2L112.84-7.2Q112.84-10.85 115.52-12.8 118.19-14.75 123.84-14.75L123.84-14.75 128.94-14.75 128.94-17.3Q128.94-20.05 127.44-21.5 125.94-22.95 122.84-22.95L122.84-22.95Q120.49-22.95 118.92-21.9 117.34-20.85 116.29-19.1L116.29-19.1 113.89-21.35Q114.94-23.45 117.24-24.93 119.54-26.4 123.04-26.4L123.04-26.4Q127.74-26.4 130.34-24.1 132.94-21.8 132.94-17.7L132.94-17.7 132.94-3.5 135.89-3.5 135.89 0ZM122.14-2.8L122.14-2.8Q123.64-2.8 124.89-3.15 126.14-3.5 127.04-4.15 127.94-4.8 128.44-5.65 128.94-6.5 128.94-7.5L128.94-7.5 128.94-11.75 123.64-11.75Q120.19-11.75 118.62-10.75 117.04-9.75 117.04-7.85L117.04-7.85 117.04-6.8Q117.04-4.9 118.42-3.85 119.79-2.8 122.14-2.8ZM152.29 0L147.29 0Q145.19 0 144.11-1.18 143.04-2.35 143.04-4.25L143.04-4.25 143.04-22.3 138.79-22.3 138.79-25.8 141.19-25.8Q142.49-25.8 142.96-26.33 143.44-26.85 143.44-28.15L143.44-28.15 143.44-32.95 147.04-32.95 147.04-25.8 152.69-25.8 152.69-22.3 147.04-22.3 147.04-3.5 152.29-3.5 152.29 0Z" opacity="1" transform="matrix(1,0,0,1,0,0)" fill="#085f63" class="wordmark-text-0" data-fill-palette-color="primary" id="text-0"></path></svg></g></svg></g></svg></g></svg></g><g></g></svg></g></svg></g></svg></g></svg></g><defs></defs></svg><rect width="320" height="360" fill="none" stroke="none" visibility="hidden"></rect></g></svg></g></svg>